<svg width="160" height="27" viewBox="0 0 160 27" fill="none" xmlns="http://www.w3.org/2000/svg">
<path d="M0.384 26V0.799998H10.752C12.984 0.799998 14.892 1.16 16.476 1.88C18.084 2.6 19.32 3.632 20.184 4.976C21.048 6.32 21.48 7.916 21.48 9.764C21.48 11.612 21.048 13.208 20.184 14.552C19.32 15.872 18.084 16.892 16.476 17.612C14.892 18.308 12.984 18.656 10.752 18.656H2.976L5.064 16.532V26H0.384ZM16.872 26L10.5 16.856H15.504L21.912 26H16.872ZM5.064 17.036L2.976 14.804H10.536C12.6 14.804 14.148 14.36 15.18 13.472C16.236 12.584 16.764 11.348 16.764 9.764C16.764 8.156 16.236 6.92 15.18 6.056C14.148 5.192 12.6 4.76 10.536 4.76H2.976L5.064 2.456V17.036ZM25.2769 17.864V14.12H35.1769V17.864H25.2769ZM47.8171 26.36C45.8491 26.36 43.9651 26.084 42.1651 25.532C40.3651 24.956 38.9371 24.224 37.8811 23.336L39.5011 19.7C40.5091 20.492 41.7571 21.152 43.2451 21.68C44.7331 22.208 46.2571 22.472 47.8171 22.472C49.1371 22.472 50.2051 22.328 51.0211 22.04C51.8371 21.752 52.4371 21.368 52.8211 20.888C53.2051 20.384 53.3971 19.82 53.3971 19.196C53.3971 18.428 53.1211 17.816 52.5691 17.36C52.0171 16.88 51.2971 16.508 50.4091 16.244C49.5451 15.956 48.5731 15.692 47.4931 15.452C46.4371 15.212 45.3691 14.936 44.2891 14.624C43.2331 14.288 42.2611 13.868 41.3731 13.364C40.5091 12.836 39.8011 12.14 39.2491 11.276C38.6971 10.412 38.4211 9.308 38.4211 7.964C38.4211 6.596 38.7811 5.348 39.5011 4.22C40.2451 3.068 41.3611 2.156 42.8491 1.484C44.3611 0.787998 46.2691 0.439999 48.5731 0.439999C50.0851 0.439999 51.5851 0.631999 53.0731 1.016C54.5611 1.4 55.8571 1.952 56.9611 2.672L55.4851 6.308C54.3571 5.636 53.1931 5.144 51.9931 4.832C50.7931 4.496 49.6411 4.328 48.5371 4.328C47.2411 4.328 46.1851 4.484 45.3691 4.796C44.5771 5.108 43.9891 5.516 43.6051 6.02C43.2451 6.524 43.0651 7.1 43.0651 7.748C43.0651 8.516 43.3291 9.14 43.8571 9.62C44.4091 10.076 45.1171 10.436 45.9811 10.7C46.8691 10.964 47.8531 11.228 48.9331 11.492C50.0131 11.732 51.0811 12.008 52.1371 12.32C53.2171 12.632 54.1891 13.04 55.0531 13.544C55.9411 14.048 56.6491 14.732 57.1771 15.596C57.7291 16.46 58.0051 17.552 58.0051 18.872C58.0051 20.216 57.6331 21.464 56.8891 22.616C56.1691 23.744 55.0531 24.656 53.5411 25.352C52.0291 26.024 50.1211 26.36 47.8171 26.36ZM67.4062 26V4.76H59.0542V0.799998H80.4382V4.76H72.0862V26H67.4062ZM95.4068 26.36C93.4388 26.36 91.6268 26.036 89.9708 25.388C88.3148 24.74 86.8748 23.84 85.6508 22.688C84.4268 21.512 83.4788 20.144 82.8068 18.584C82.1348 17 81.7988 15.272 81.7988 13.4C81.7988 11.528 82.1348 9.812 82.8068 8.252C83.4788 6.668 84.4268 5.3 85.6508 4.148C86.8748 2.972 88.3148 2.06 89.9708 1.412C91.6268 0.763999 93.4268 0.439999 95.3708 0.439999C97.3388 0.439999 99.1388 0.763999 100.771 1.412C102.427 2.06 103.867 2.972 105.091 4.148C106.315 5.3 107.263 6.668 107.935 8.252C108.607 9.812 108.943 11.528 108.943 13.4C108.943 15.272 108.607 17 107.935 18.584C107.263 20.168 106.315 21.536 105.091 22.688C103.867 23.84 102.427 24.74 100.771 25.388C99.1388 26.036 97.3508 26.36 95.4068 26.36ZM95.3708 22.256C96.6428 22.256 97.8188 22.04 98.8988 21.608C99.9788 21.176 100.915 20.564 101.707 19.772C102.499 18.956 103.111 18.02 103.543 16.964C103.999 15.884 104.227 14.696 104.227 13.4C104.227 12.104 103.999 10.928 103.543 9.872C103.111 8.792 102.499 7.856 101.707 7.064C100.915 6.248 99.9788 5.624 98.8988 5.192C97.8188 4.76 96.6428 4.544 95.3708 4.544C94.0988 4.544 92.9228 4.76 91.8428 5.192C90.7868 5.624 89.8508 6.248 89.0348 7.064C88.2428 7.856 87.6188 8.792 87.1628 9.872C86.7308 10.928 86.5148 12.104 86.5148 13.4C86.5148 14.672 86.7308 15.848 87.1628 16.928C87.6188 18.008 88.2428 18.956 89.0348 19.772C89.8268 20.564 90.7628 21.176 91.8428 21.608C92.9228 22.04 94.0988 22.256 95.3708 22.256ZM113.904 26V0.799998H124.272C126.504 0.799998 128.412 1.16 129.996 1.88C131.604 2.6 132.84 3.632 133.704 4.976C134.568 6.32 135 7.916 135 9.764C135 11.612 134.568 13.208 133.704 14.552C132.84 15.872 131.604 16.892 129.996 17.612C128.412 18.308 126.504 18.656 124.272 18.656H116.496L118.584 16.532V26H113.904ZM130.392 26L124.02 16.856H129.024L135.432 26H130.392ZM118.584 17.036L116.496 14.804H124.056C126.12 14.804 127.668 14.36 128.7 13.472C129.756 12.584 130.284 11.348 130.284 9.764C130.284 8.156 129.756 6.92 128.7 6.056C127.668 5.192 126.12 4.76 124.056 4.76H116.496L118.584 2.456V17.036ZM144.556 11.276H157.084V15.128H144.556V11.276ZM144.916 22.076H159.136V26H140.236V0.799998H158.632V4.724H144.916V22.076Z" fill="black"/>
</svg>
